<?xml version="1.0" encoding="UTF-8"?>
<svg version="1.1" xmlns="http://www.w3.org/2000/svg" width="512" height="512">
<path d="M0 0 C1.26158432 -0.01606293 2.52316864 -0.03212585 3.82298279 -0.04867554 C5.19195883 -0.06016113 6.56094247 -0.07076998 7.92993164 -0.08056641 C8.97094623 -0.08855192 8.97094623 -0.08855192 10.03299141 -0.09669876 C13.7032981 -0.12334392 17.37357172 -0.14275008 21.04394531 -0.15722656 C24.07322262 -0.17058324 27.10182909 -0.19847817 30.13085938 -0.23925781 C33.80012627 -0.28864157 37.46878362 -0.31335291 41.13836861 -0.32045364 C42.53181187 -0.32715095 43.92524232 -0.34233369 45.3184948 -0.36634445 C57.56270798 -0.56540247 57.56270798 -0.56540247 61.49072266 2.60058594 C64.47291598 6.17652368 65.04626694 8.37917107 65.01196289 13.08740234 C64.37676975 16.80880562 62.31279773 18.59599959 59.65258789 21.19287109 C56.99085777 22.52373615 54.94949662 22.3321823 51.96875 22.35058594 C50.77668442 22.36084808 49.58461884 22.37111023 48.35643005 22.38168335 C46.41281334 22.39263535 46.41281334 22.39263535 44.42993164 22.40380859 C43.08670736 22.41677646 41.74349104 22.43059301 40.40028381 22.44522095 C34.69482664 22.50673987 28.98938678 22.56067155 23.28369141 22.59423828 C19.79282962 22.61532658 16.30235007 22.65075053 12.81170845 22.69499588 C10.84834602 22.71584752 8.88483829 22.72118214 6.92137146 22.72616577 C-3.00421389 22.86159755 -11.07776483 24.00065265 -18.48803711 30.96630859 C-24.90031991 38.64488254 -27.46449693 47.20156571 -27.48112488 57.05488586 C-27.48538986 58.20286652 -27.48965485 59.35084717 -27.49404907 60.53361511 C-27.49336929 62.40162529 -27.49336929 62.40162529 -27.49267578 64.30737305 C-27.49567077 65.64339288 -27.49907408 66.97941185 -27.50285339 68.31542969 C-27.51166344 71.93333655 -27.51403026 75.55121973 -27.51466918 79.16913629 C-27.51538143 81.4329676 -27.51751907 83.69679296 -27.5201664 85.96062279 C-27.5294102 93.86836502 -27.53350253 101.77609043 -27.53271484 109.68383789 C-27.53211444 117.03876075 -27.54266132 124.39361018 -27.55845851 131.74851447 C-27.57156263 138.0765404 -27.57689753 144.40454241 -27.57625943 150.73258179 C-27.57600527 154.50603107 -27.57881101 158.27941505 -27.58943748 162.05285072 C-27.59916685 165.60449611 -27.59916474 169.15601444 -27.59192085 172.70766449 C-27.59038804 174.62029643 -27.59868802 176.53292849 -27.60736084 178.44554138 C-27.5643803 190.29547727 -25.74415142 199.90854595 -17.71459961 209.05224609 C-10.04950686 216.25386812 -0.91748297 216.63344111 9.13267517 216.58055115 C10.36654215 216.58593669 11.60040913 216.59132222 12.87166601 216.59687096 C16.27547195 216.60865687 19.67878508 216.60710087 23.08257091 216.59970415 C26.76159779 216.59495914 30.440573 216.60749403 34.11958313 216.61772156 C41.31871149 216.63488856 48.51775248 216.63575398 55.71689599 216.63050865 C61.56996096 216.62646199 67.42300017 216.6279164 73.27606392 216.63325691 C74.5271426 216.63437955 74.5271426 216.63437955 75.8034956 216.63552486 C77.49803849 216.63705638 79.19258137 216.63859473 80.88712425 216.64013983 C96.7661133 216.65385714 112.64505303 216.64843247 128.52404094 216.63695461 C143.04058058 216.6270219 157.55699275 216.63996491 172.07351273 216.6638888 C186.99228291 216.68828972 201.91099376 216.69788531 216.8297835 216.69123608 C225.20029537 216.68774621 233.57070923 216.68996063 241.94120598 216.70748711 C249.06635069 216.72222146 256.19132836 216.72282841 263.31646984 216.7054162 C266.94917888 216.69691411 270.58158965 216.69473695 274.21428299 216.71006775 C278.15817966 216.7265054 282.10161802 216.7117442 286.04551697 216.69407654 C287.18531586 216.70368154 288.32511475 216.71328655 289.49945301 216.72318262 C297.81819774 216.64661966 304.24726901 214.79601407 311.40258789 210.56787109 C320.78319978 200.66611409 321.95225256 190.49801909 321.94311523 177.44580078 C321.9491067 176.05376324 321.95591366 174.66172902 321.96347046 173.2696991 C321.98107667 169.50294831 321.98582361 165.7362885 321.98710203 161.96950054 C321.98852745 159.61133324 321.99280448 157.25318877 321.99809647 154.89502716 C322.01658025 146.65428713 322.02476931 138.41361164 322.02319336 130.17285156 C322.021993 122.51396049 322.0430787 114.8553517 322.07468069 107.19653201 C322.10091052 100.60262957 322.11155783 94.00881893 322.11028254 87.41486478 C322.10977479 83.48479603 322.11535322 79.55497823 322.13663864 75.62496185 C322.15613422 71.92462092 322.15606929 68.22476739 322.14160538 64.52440834 C322.13854811 62.53581479 322.1551149 60.54722059 322.17248535 58.55870056 C322.10523282 48.87260049 320.34103998 39.60336991 314.27368164 31.75927734 C308.03417506 25.73026014 301.20424315 23.07904786 292.6940918 23.05102539 C291.4924942 23.04399094 290.29089661 23.03695648 289.05288696 23.02970886 C287.75805389 23.02554459 286.46322083 23.02138031 285.12915039 23.01708984 C283.78159812 23.00665911 282.43405319 22.99523546 281.08651733 22.98286438 C275.37354801 22.93055203 269.66071353 22.88243286 263.94750977 22.86694336 C260.44778951 22.85683497 256.94867863 22.82744357 253.44919968 22.78562355 C251.47627324 22.76740948 249.50319024 22.76995584 247.53018188 22.77287292 C236.38426492 22.62070278 236.38426492 22.62070278 231.65258789 18.19287109 C229.30016442 14.98502091 229.18416699 12.09637858 229.65258789 8.19287109 C231.78970877 4.22393233 233.42305101 1.79015279 237.65258789 0.19287109 C240.4513092 -0.06782532 240.4513092 -0.06782532 243.71533203 -0.08178711 C245.55358299 -0.09608513 245.55358299 -0.09608513 247.42897034 -0.110672 C248.76522856 -0.11041038 250.1014868 -0.10947243 251.43774414 -0.10791016 C252.81815214 -0.11180153 254.19855895 -0.1161371 255.57896423 -0.12089539 C258.47488274 -0.12835474 261.37067937 -0.12807071 264.26660156 -0.12280273 C267.94921561 -0.1170417 271.63132116 -0.13385784 275.31385136 -0.15714741 C278.16833845 -0.17200582 281.02270695 -0.17273961 283.87722588 -0.16963768 C285.8860331 -0.17039077 287.89482209 -0.18418248 289.90357971 -0.19831848 C305.34261065 -0.12123518 318.03627124 4.0043261 329.33227539 14.75146484 C338.85764937 24.7739543 344.74444542 37.42962169 344.79975891 51.35655212 C344.81049187 53.21707718 344.81049187 53.21707718 344.82144165 55.1151886 C344.82428161 56.48214697 344.82699338 57.8491056 344.82958984 59.21606445 C344.83585962 60.66204998 344.84250688 62.10803391 344.84950256 63.55401611 C344.8704942 68.29690439 344.8809043 73.03979279 344.89086914 77.78271484 C344.89491933 79.42088907 344.89903633 81.05906313 344.90321922 82.69723701 C344.92226466 90.39980602 344.93649383 98.10236551 344.94483119 105.80495352 C344.95458421 114.66708587 344.98085561 123.52896718 345.02133209 132.39101118 C345.05161019 139.25836731 345.06631132 146.12565199 345.06961221 152.99307352 C345.07195048 157.08592391 345.08074922 161.17850593 345.10607338 165.2712841 C345.1295632 169.12999044 345.13350471 172.98825574 345.123312 176.84701538 C345.12282146 178.25214173 345.12899693 179.65729135 345.14286804 181.06234932 C345.29841515 197.77306817 341.00085161 212.72723953 329.34008789 225.06787109 C319.92638243 233.89022324 308.27590102 239.30192495 295.27912903 239.32709217 C294.20778843 239.33155001 293.13644783 239.33600786 292.03264236 239.34060079 C290.861553 239.34041643 289.69046364 239.34023206 288.48388672 239.34004211 C287.23513638 239.3437188 285.98638603 239.34739549 284.69979477 239.35118359 C281.23590471 239.36118091 277.77203198 239.36491673 274.30812955 239.3675729 C270.57104844 239.37148274 266.83398096 239.38106065 263.09690857 239.38978577 C254.07252888 239.40953176 245.0481481 239.41961436 236.02375221 239.42851356 C231.77067619 239.43289981 227.51760141 239.43826578 223.26452637 239.44350243 C209.12035379 239.46051341 194.97618197 239.4750064 180.83200073 239.48225117 C177.1629842 239.48416096 173.49396768 239.48608131 169.82495117 239.48803711 C168.91306998 239.48852085 168.00118879 239.48900459 167.06167483 239.48950299 C152.29795652 239.49779892 137.53431934 239.52312902 122.77063644 239.55561779 C107.6022573 239.58872409 92.43391934 239.60670318 77.26550388 239.60989541 C68.75341827 239.61205728 60.24145096 239.62075846 51.72940063 239.64635658 C44.47836569 239.66811249 37.22747779 239.67609007 29.97641391 239.6663898 C26.28056735 239.6618591 22.58502386 239.66365888 18.88921928 239.68315125 C14.8716548 239.70415644 10.85475613 239.69375278 6.8371582 239.68061829 C5.68391461 239.69158753 4.53067102 239.70255678 3.34248066 239.71385843 C-11.39941657 239.59803867 -24.61370323 234.37228216 -35.34741211 224.19287109 C-47.36281372 209.35832186 -50.65916709 195.04385968 -50.62207031 176.22290039 C-50.62642847 174.85484543 -50.63161526 173.48679289 -50.63755798 172.1187439 C-50.65084179 168.43466049 -50.65153853 164.75068033 -50.64899468 161.06657767 C-50.64791754 157.97558879 -50.65282729 154.88462017 -50.6576001 151.79363567 C-50.66865896 144.49253501 -50.66915343 137.19148582 -50.66308594 129.89038086 C-50.65705127 122.39396923 -50.66935257 114.89774553 -50.69065601 107.40136594 C-50.70835238 100.93302626 -50.71426071 94.46474596 -50.71101826 87.99638301 C-50.70921774 84.14736963 -50.71171683 80.29849027 -50.7257328 76.44949913 C-50.73843805 72.82548655 -50.73624921 69.20176382 -50.72332191 65.57775497 C-50.71988209 63.63869702 -50.73104024 61.69962966 -50.7428894 59.76060486 C-50.63816459 41.99753199 -45.93318125 26.13823364 -33.34741211 13.19287109 C-23.91360606 5.0339037 -12.47535424 0.14483213 0 0 Z " fill="#000000" transform="translate(109.347412109375,151.80712890625)"/>
<path d="M0 0 C2.97239241 1.78476241 5.42604027 3.85208055 7 7 C7.10647145 9.19154073 7.14670514 11.38637951 7.15821838 13.58047485 C7.16562535 14.60596799 7.16562535 14.60596799 7.17318195 15.65217817 C7.18859778 17.95382589 7.19692857 20.25544564 7.20532227 22.55712891 C7.21489759 24.20272571 7.22490746 25.84832003 7.23532104 27.49391174 C7.2624137 31.97090744 7.28339961 36.44791373 7.30332303 40.92494631 C7.32515574 45.60016095 7.35255768 50.2753428 7.37937927 54.95053101 C7.42934296 63.8079799 7.47426812 72.66544696 7.51740164 81.52293146 C7.56674264 91.60503256 7.62167238 101.68710075 7.67708123 111.76917005 C7.79095769 132.51274939 7.89778436 153.25636013 8 174 C8.42737961 173.56817917 8.85475922 173.13635834 9.29508972 172.69145203 C13.75028786 168.1919552 18.21255133 163.69955491 22.67895508 159.21118164 C24.34418486 157.53590376 26.00761394 155.85883396 27.66918945 154.17993164 C30.0598825 151.76493857 32.45700916 149.35649557 34.85546875 146.94921875 C35.5952446 146.19912033 36.33502045 145.44902191 37.09721375 144.67619324 C45.44747581 136.32413006 45.44747581 136.32413006 51.9375 135.5 C56.66447863 135.661147 58.76610106 137.68722547 62 141 C63.5547669 144.10953379 63.28644437 146.56266761 63 150 C60.36646021 154.51099221 57.11076347 158.20428282 53.45629883 161.89770508 C52.91421783 162.45292847 52.37213684 163.00815186 51.81362915 163.5802002 C50.03387318 165.39909069 48.24641905 167.21011803 46.45703125 169.01953125 C45.84307684 169.64163671 45.22912243 170.26374218 44.59656334 170.90469933 C41.35018398 174.19264526 38.09740114 177.47410547 34.83959961 180.75073242 C31.48465741 184.1278537 28.1537319 187.52767873 24.82756519 190.93311024 C22.25600746 193.55701666 19.66677847 196.1629378 17.07251549 198.7643795 C15.83663649 200.00997569 14.60749908 201.26230013 13.38547707 202.52149391 C1.89521568 214.339436 1.89521568 214.339436 -5.00727844 214.5085907 C-10.5047334 213.10550734 -14.18784702 209.09525259 -18.05957031 205.18334961 C-18.64390839 204.60090988 -19.22824646 204.01847015 -19.83029175 203.41838074 C-21.75115001 201.50121286 -23.66473756 199.57696549 -25.578125 197.65234375 C-26.91343303 196.31584313 -28.24911147 194.97971249 -29.58514404 193.64393616 C-32.37888395 190.84863454 -35.16923855 188.05001195 -37.95703125 185.2487793 C-41.53547141 181.65330866 -45.12050037 178.06449719 -48.70784378 174.47791195 C-51.46356212 171.72192216 -54.21667022 168.96333759 -56.96889496 166.20385933 C-58.29043166 164.87913537 -59.61257939 163.55502069 -60.93534088 162.2315197 C-62.77876436 160.38593562 -64.61886175 158.53710116 -66.45800781 156.68725586 C-67.28239853 155.86354492 -67.28239853 155.86354492 -68.1234436 155.02319336 C-71.62424079 151.49247452 -73.15400795 149.65080364 -73.3125 144.6875 C-73.28413514 141.16458401 -73.06650675 140.10641081 -71.125 137 C-67.73330004 133.8078118 -65.08538758 133.45159914 -60.53430176 133.55125427 C-57.52912258 134.08337769 -56.42294205 134.95872913 -54.20898438 137.02368164 C-53.5194165 137.66137482 -52.82984863 138.29906799 -52.11938477 138.95608521 C-51.41998779 139.63057709 -50.72059082 140.30506897 -50 141 C-49.33476318 141.64137909 -48.66952637 142.28275818 -47.98413086 142.943573 C-45.89905165 144.98595574 -43.83751598 147.04971857 -41.78125 149.12109375 C-40.66623108 150.23823509 -40.66623108 150.23823509 -39.52868652 151.37794495 C-37.18340699 153.72876745 -34.84165164 156.08306431 -32.5 158.4375 C-30.89867039 160.04385199 -29.29711002 161.64997397 -27.6953125 163.25585938 C-23.79420527 167.16791985 -19.8959758 171.08282952 -16 175 C-15.99853344 174.14485746 -15.99706688 173.28971493 -15.99555588 172.40865898 C-15.95850545 151.60186904 -15.89951413 130.79524221 -15.81609726 109.98858452 C-15.77628664 99.92663175 -15.74390442 89.86475741 -15.72900391 79.80273438 C-15.71599788 71.03274456 -15.68906006 62.26292719 -15.64538693 53.49303448 C-15.62274851 48.84933854 -15.60709075 44.20585548 -15.60811615 39.56209946 C-15.60886136 35.19043106 -15.5909668 30.81923369 -15.55883217 26.44768715 C-15.55031977 24.84412217 -15.54859235 23.24050443 -15.55419731 21.63692665 C-15.560839 19.44456583 -15.54291557 17.25370294 -15.51898193 15.06149292 C-15.51345118 13.22251592 -15.51345118 13.22251592 -15.50780869 11.34638786 C-14.81560251 6.78484649 -12.88942067 3.43335361 -9.1875 0.625 C-5.89024117 -0.31707395 -3.4187401 -0.41260656 0 0 Z " fill="#000000" transform="translate(260,84)"/>
</svg>
