<?xml version="1.0" standalone="no"?>
<!DOCTYPE svg PUBLIC "-//W3C//DTD SVG 20010904//EN"
 "http://www.w3.org/TR/2001/REC-SVG-20010904/DTD/svg10.dtd">
<svg version="1.0" xmlns="http://www.w3.org/2000/svg"
 width="37" height="37" viewBox="0 0 1024.000000 1024.000000"
 preserveAspectRatio="xMidYMid meet">

<g transform="translate(0.000000,1024.000000) scale(0.100000,-0.100000)"
fill="#000000" stroke="none">
<path d="M4830 7929 c-378 -41 -699 -134 -1035 -298 -499 -245 -918 -625
-1220 -1106 -220 -351 -351 -700 -417 -1115 -20 -128 -23 -179 -22 -430 0
-233 4 -316 22 -453 24 -178 36 -216 79 -244 66 -43 175 -1 189 73 4 21 -3
114 -16 218 -27 212 -32 549 -11 706 67 497 235 912 530 1307 109 146 368 412
501 515 717 551 1596 722 2450 477 305 -88 664 -270 905 -459 87 -67 97 -72
146 -61 84 19 125 95 95 175 -19 50 -67 90 -251 208 -414 267 -868 431 -1335
483 -145 16 -482 18 -610 4z"/>
<path d="M7445 7061 c-121 -31 -222 -133 -259 -260 -20 -68 -20 -124 -1 -187
8 -27 15 -53 15 -58 0 -5 -57 -66 -126 -136 l-126 -127 -49 18 c-54 21 -161
25 -219 9 -93 -26 -182 -115 -217 -215 -21 -61 -22 -164 -4 -228 l14 -49 -133
-133 -132 -133 -33 22 c-97 66 -259 74 -377 19 -148 -69 -247 -225 -248 -387
0 -23 -8 -36 -29 -51 -16 -11 -107 -76 -202 -145 -96 -69 -189 -135 -206 -147
l-33 -22 -212 115 c-320 174 -313 169 -355 243 -49 83 -127 154 -201 181 -113
43 -249 37 -352 -16 -49 -24 -125 -99 -158 -154 -46 -80 -66 -217 -42 -300
l10 -35 -166 -166 -166 -167 -37 10 c-20 6 -72 8 -116 6 -174 -9 -296 -124
-325 -306 -10 -58 -3 -127 18 -182 9 -23 1 -34 -92 -133 -100 -108 -101 -108
-131 -96 -49 19 -172 14 -235 -10 -75 -28 -149 -95 -190 -173 -29 -54 -35 -75
-38 -149 -5 -105 11 -162 69 -243 84 -118 213 -168 369 -144 l45 7 85 -105
c243 -300 610 -580 1007 -769 584 -277 1230 -353 1873 -219 1140 238 2055
1150 2314 2307 87 388 100 810 35 1191 -26 153 -56 281 -75 322 -32 68 -117
93 -181 54 -62 -37 -70 -95 -35 -235 49 -190 66 -353 66 -650 1 -303 -5 -368
-55 -599 -81 -370 -228 -711 -427 -993 l-65 -93 -2165 0 c-1996 0 -2164 1
-2158 16 31 81 32 177 1 264 l-16 44 107 103 106 104 35 -12 c19 -6 67 -9 106
-7 217 12 373 199 337 406 -6 37 -17 78 -25 92 -14 24 -11 28 131 171 l145
145 55 -27 c30 -15 80 -33 111 -39 102 -22 237 14 321 85 31 26 117 134 124
156 2 6 42 -11 98 -43 52 -30 158 -89 235 -130 77 -42 159 -87 182 -99 49 -28
45 -30 188 75 55 40 159 114 230 166 72 51 142 104 156 117 l26 24 44 -41
c126 -115 303 -140 456 -65 104 51 184 138 218 236 17 48 20 195 5 235 -11 27
-6 33 138 177 l150 150 52 -13 c167 -40 351 53 411 207 24 64 30 186 11 234
-10 25 -3 33 122 158 l132 132 53 -12 c87 -18 186 -9 256 25 73 36 142 104
175 171 22 43 25 64 25 155 0 89 -3 112 -23 152 -37 74 -96 134 -168 169 -55
27 -79 33 -147 35 -45 2 -95 0 -112 -5z m-1410 -1680 c113 -52 139 -180 56
-274 -42 -49 -133 -60 -201 -24 -122 64 -114 240 14 298 52 23 80 23 131 0z
m-1788 -232 c93 -57 95 -207 6 -273 -35 -26 -118 -32 -164 -13 -85 35 -123
146 -78 226 49 87 150 113 236 60z m2103 -2060 l755 0 -85 -81 c-440 -418
-953 -667 -1556 -754 -146 -21 -504 -24 -644 -5 -508 69 -938 245 -1345 550
-122 93 -325 273 -325 291 0 4 550 6 1223 4 672 -2 1562 -4 1977 -5z"/>
</g>
</svg>
