<?xml version="1.0" standalone="no"?>
<!DOCTYPE svg PUBLIC "-//W3C//DTD SVG 20010904//EN"
 "http://www.w3.org/TR/2001/REC-SVG-20010904/DTD/svg10.dtd">
<svg version="1.0" xmlns="http://www.w3.org/2000/svg"
 width="20" height="20" viewBox="0 0 200.000000 200.000000"
 preserveAspectRatio="xMidYMid meet">

<g transform="translate(0.000000,200.000000) scale(0.100000,-0.100000)"
fill="#000000" stroke="none">
<path d="M315 1786 c-39 -18 -80 -62 -99 -108 -14 -33 -16 -121 -16 -680 0
-605 2 -645 19 -683 22 -47 64 -89 104 -104 39 -15 1315 -15 1354 0 40 15 82
57 104 104 17 36 19 68 19 298 l0 258 -25 24 c-32 33 -78 33 -110 0 l-25 -24
0 -240 c0 -204 -2 -242 -16 -255 -14 -14 -84 -16 -624 -16 -540 0 -610 2 -624
16 -14 14 -16 84 -16 624 0 540 2 610 16 624 13 14 51 16 255 16 l240 0 24 25
c33 32 33 78 0 110 l-24 25 -263 0 c-197 -1 -270 -4 -293 -14z"/>
<path d="M1265 1775 c-16 -15 -25 -36 -25 -55 0 -19 9 -40 25 -55 23 -24 30
-25 137 -25 l113 0 -303 -303 c-296 -297 -302 -304 -302 -343 0 -53 31 -84 85
-84 38 0 49 9 342 302 l303 303 0 -113 c0 -107 1 -114 25 -137 32 -33 78 -33
110 0 l25 24 0 231 0 231 -25 24 -24 25 -231 0 -231 0 -24 -25z"/>
</g>
</svg>
