<?xml version="1.0" standalone="no"?>
<!DOCTYPE svg PUBLIC "-//W3C//DTD SVG 20010904//EN"
 "http://www.w3.org/TR/2001/REC-SVG-20010904/DTD/svg10.dtd">
<svg version="1.0" xmlns="http://www.w3.org/2000/svg"
 width="25" height="25" viewBox="0 0 512.000000 512.000000"
 preserveAspectRatio="xMidYMid meet">

<g transform="translate(0.000000,512.000000) scale(0.100000,-0.100000)"
fill="#000000" stroke="none">
<path d="M2315 5109 c-852 -87 -1610 -592 -2009 -1338 -149 -279 -240 -562
-288 -896 -17 -118 -17 -512 0 -630 43 -301 119 -550 246 -810 321 -654 888
-1129 1590 -1334 505 -148 1043 -132 1556 44 148 51 424 189 560 280 382 255
679 592 879 996 362 728 362 1550 0 2278 -129 261 -281 470 -491 678 -397 394
-884 636 -1443 719 -122 18 -477 26 -600 13z m585 -334 c884 -138 1612 -799
1830 -1662 51 -201 64 -316 64 -553 0 -380 -64 -658 -229 -995 -321 -652 -944
-1106 -1678 -1222 -140 -22 -489 -24 -622 -5 -1005 150 -1767 901 -1922 1893
-24 159 -24 499 0 658 158 1012 970 1790 1982 1900 125 13 448 5 575 -14z"/>
<path d="M1963 4145 c-129 -35 -246 -128 -305 -240 l-33 -64 -202 -3 c-221 -3
-227 -5 -277 -72 -29 -39 -29 -133 0 -172 50 -67 56 -69 277 -72 l202 -3 33
-64 c78 -150 252 -255 422 -255 170 0 344 105 422 256 l33 64 682 2 c671 3
682 3 709 24 53 39 69 71 69 134 0 63 -16 95 -69 134 -27 21 -38 21 -709 24
l-682 2 -33 64 c-99 191 -334 296 -539 241z m180 -319 c103 -43 128 -177 48
-257 -65 -65 -157 -65 -222 0 -124 123 13 325 174 257z"/>
<path d="M2443 3025 c-129 -35 -246 -128 -305 -241 l-33 -64 -602 -2 c-590 -3
-602 -3 -629 -24 -53 -39 -69 -71 -69 -134 0 -63 16 -95 69 -134 27 -21 39
-21 629 -24 l602 -2 33 -64 c78 -151 252 -256 422 -256 170 0 344 105 422 256
l33 64 602 2 c590 3 602 3 629 24 53 39 69 71 69 134 0 63 -16 95 -69 134 -27
21 -39 21 -629 24 l-602 2 -33 64 c-99 191 -335 296 -539 241z m180 -319 c103
-43 128 -177 48 -257 -65 -65 -157 -65 -222 0 -124 123 13 325 174 257z"/>
<path d="M3083 1905 c-129 -35 -246 -128 -305 -241 l-33 -64 -762 -2 c-751 -3
-762 -3 -789 -24 -53 -39 -69 -71 -69 -134 0 -63 16 -95 69 -134 27 -21 38
-21 789 -24 l762 -2 33 -64 c78 -151 252 -256 422 -256 170 0 344 105 422 255
l32 63 123 4 c132 3 152 10 197 72 29 39 29 133 0 172 -45 62 -65 69 -197 72
l-123 4 -32 63 c-99 190 -335 295 -539 240z m180 -319 c103 -43 128 -177 48
-257 -65 -65 -157 -65 -222 0 -124 123 13 325 174 257z"/>
</g>
</svg>
