<?xml version="1.0" standalone="no"?>
<!DOCTYPE svg PUBLIC "-//W3C//DTD SVG 20010904//EN"
 "http://www.w3.org/TR/2001/REC-SVG-20010904/DTD/svg10.dtd">
<svg version="1.0" xmlns="http://www.w3.org/2000/svg"
 width="29" height="25" viewBox="0 0 338.000000 338.000000"
 preserveAspectRatio="xMidYMid meet">

<g transform="translate(0.000000,338.000000) scale(0.100000,-0.100000)"
fill="#000000" stroke="none">
<path d="M1629 3361 c-135 -53 -215 -205 -175 -336 9 -27 16 -51 16 -52 0 -2
-66 -3 -147 -3 -121 0 -154 -3 -182 -18 -55 -28 -75 -63 -79 -142 l-4 -70
-187 0 c-103 0 -204 -5 -226 -11 -56 -15 -128 -92 -143 -152 -18 -68 -17
-2363 0 -2421 16 -54 90 -128 144 -144 31 -9 283 -12 1046 -12 1133 0 1066 -4
1136 75 21 24 44 61 50 83 18 58 17 2368 0 2426 -17 55 -91 131 -143 145 -22
6 -123 11 -226 11 l-187 0 -4 70 c-7 127 -53 160 -227 160 -104 0 -113 1 -106
18 87 226 -135 460 -356 373z m204 -139 c16 -15 36 -40 44 -56 21 -39 13 -128
-14 -164 -20 -27 -22 -27 -138 -27 -116 0 -118 0 -138 27 -27 36 -35 125 -14
164 52 100 184 128 260 56z m-759 -752 c32 -72 11 -70 616 -70 605 0 584 -2
616 70 l18 40 131 0 c143 0 162 -6 190 -60 13 -25 15 -167 15 -1082 0 -1035 0
-1054 -20 -1086 -11 -18 -32 -37 -46 -42 -16 -6 -358 -10 -905 -10 -767 0
-884 2 -909 15 -63 33 -60 -29 -60 1127 0 1036 0 1054 20 1086 11 18 30 37 43
42 12 5 79 9 148 9 l125 1 18 -40z"/>
<path d="M1553 2216 c-253 -49 -447 -183 -582 -403 -131 -214 -148 -523 -42
-758 138 -304 432 -495 761 -495 459 0 830 370 830 828 0 212 -55 367 -192
540 -172 216 -504 340 -775 288z m281 -236 c268 -68 456 -304 459 -575 2 -173
-58 -321 -178 -440 -117 -118 -256 -175 -425 -175 -168 0 -309 57 -424 174
-123 123 -180 262 -178 436 2 389 372 676 746 580z"/>
<path d="M1949 1673 c-9 -2 -89 -82 -179 -178 -90 -96 -166 -175 -170 -175 -3
0 -35 29 -71 65 -69 70 -116 99 -146 89 -70 -25 -121 -101 -102 -151 12 -33
241 -268 282 -289 54 -29 72 -15 283 208 304 322 296 308 215 389 -47 48 -66
55 -112 42z"/>
</g>
</svg>
